<?xml version="1.0" encoding="utf-8"?>
<!-- Generator: Adobe Illustrator 15.1.0, SVG Export Plug-In . SVG Version: 6.00 Build 0)  -->
<!DOCTYPE svg PUBLIC "-//W3C//DTD SVG 1.1//EN" "http://www.w3.org/Graphics/SVG/1.1/DTD/svg11.dtd">
<svg version="1.1" id="Layer_1" xmlns="http://www.w3.org/2000/svg" xmlns:xlink="http://www.w3.org/1999/xlink" x="0px" y="0px"
	 width="1000px" height="135px" viewBox="0 0 1000 135" enable-background="new 0 0 1000 135" xml:space="preserve">
<g>
	<path fill="#FFFFFF" d="M434.043,131.613l-3.272-25.029h-18.676l-3.851,25.029h-18.676L410.939,3.387h22.526l21.371,128.227
		H434.043z M422.106,37.08l-7.509,52.369h13.862L422.106,37.08z"/>
	<polygon fill="#FFFFFF" points="513.164,131.613 491.601,73.469 484.478,53.83 484.478,131.613 465.994,131.613 465.994,3.387 
		484.092,3.387 504.115,62.109 510.662,81.939 510.662,3.387 528.952,3.387 528.952,131.613 	"/>
	<g>
		<path fill="#FFFFFF" d="M573.562,131.613h-31.19V3.387h31.19c18.482,0,29.265,11.552,29.265,30.612v67.771
			C602.826,121.024,592.044,131.613,573.562,131.613 M582.418,33.807c0-8.086-3.08-12.13-10.205-12.13h-9.434v91.838h9.434
			c7.125,0,10.205-4.235,10.205-12.129V33.807z"/>
		<path fill="#FFFFFF" d="M673.122,78.859h-5.776v52.754h-20.408V3.387h33.115c14.44,0,25.029,8.086,25.029,25.799v25.029
			c0,10.397-4.043,18.099-12.706,21.564l14.824,55.834h-20.986L673.122,78.859z M677.55,62.879c5.006,0,7.701-2.888,7.701-9.049
			V29.379c0-5.392-2.117-8.279-6.931-8.279h-10.975v41.779H677.55z"/>
		<path fill="#FFFFFF" d="M747.37,133.924c-18.483,0-30.612-12.514-30.612-30.42V31.497c0-17.714,12.129-30.421,30.612-30.421
			s30.613,12.707,30.613,30.421v72.007C777.983,121.41,765.854,133.924,747.37,133.924 M757.382,29.956
			c0-6.161-3.658-10.396-10.012-10.396c-6.353,0-10.012,4.235-10.012,10.396v75.088c0,6.161,3.659,10.397,10.012,10.397
			c6.354,0,10.012-4.236,10.012-10.397V29.956z"/>
		<path fill="#FFFFFF" d="M820.368,133.924c-17.327,0-30.228-11.552-30.228-28.88V3.387h20.602v102.042
			c0,6.546,3.466,10.205,9.626,10.205c6.547,0,10.013-3.659,10.013-10.205V3.387h19.83v101.657
			C850.211,122.372,837.696,133.924,820.368,133.924"/>
		<polygon fill="#FFFFFF" points="910.171,131.613 888.607,73.469 881.483,53.83 881.483,131.613 863.001,131.613 863.001,3.387 
			881.099,3.387 901.122,62.109 907.668,81.939 907.668,3.387 925.959,3.387 925.959,131.613 		"/>
		<path fill="#FFFFFF" d="M970.734,131.613h-31.189V3.387h31.189c18.484,0,29.266,11.552,29.266,30.612v67.771
			C1000,121.024,989.219,131.613,970.734,131.613 M979.592,33.807c0-8.086-3.08-12.13-10.205-12.13h-9.434v91.838h9.434
			c7.125,0,10.205-4.235,10.205-12.129V33.807z"/>
		<path fill="#FFFFFF" d="M26.185,78.859h-5.776v52.754H0V3.387h33.115c14.44,0,25.029,8.086,25.029,25.799v25.029
			c0,10.397-4.043,18.099-12.707,21.564l14.825,55.834H39.276L26.185,78.859z M30.612,62.879c5.006,0,7.701-2.888,7.701-9.049
			V29.379c0-5.392-2.117-8.279-6.931-8.279H20.408v41.779H30.612z"/>
		<path fill="#FFFFFF" d="M100.433,133.924c-18.483,0-30.612-12.514-30.612-30.42V31.497c0-17.714,12.129-30.421,30.612-30.421
			s30.612,12.707,30.612,30.421v72.007C131.045,121.41,118.916,133.924,100.433,133.924 M110.444,29.956
			c0-6.161-3.658-10.396-10.012-10.396s-10.012,4.235-10.012,10.396v75.088c0,6.161,3.658,10.397,10.012,10.397
			s10.012-4.236,10.012-10.397V29.956z"/>
		<path fill="#FFFFFF" d="M173.432,133.924c-17.328,0-30.229-11.552-30.229-28.88V3.387h20.602v102.042
			c0,6.546,3.466,10.205,9.627,10.205c6.546,0,10.012-3.659,10.012-10.205V3.387h19.83v101.657
			C203.273,122.372,190.759,133.924,173.432,133.924"/>
		<polygon fill="#FFFFFF" points="263.233,131.613 241.669,73.469 234.546,53.83 234.546,131.613 216.062,131.613 216.062,3.387 
			234.161,3.387 254.185,62.109 260.73,81.939 260.73,3.387 279.021,3.387 279.021,131.613 		"/>
		<path fill="#FFFFFF" d="M323.798,131.613h-31.19V3.387h31.19c18.482,0,29.265,11.552,29.265,30.612v67.771
			C353.062,121.024,342.28,131.613,323.798,131.613 M332.653,33.807c0-8.086-3.08-12.13-10.203-12.13h-9.435v91.838h9.435
			c7.123,0,10.203-4.235,10.203-12.129V33.807z"/>
	</g>
</g>
</svg>
