<?xml version="1.0" encoding="utf-8"?>
<!-- Generator: Adobe Illustrator 15.1.0, SVG Export Plug-In . SVG Version: 6.00 Build 0)  -->
<!DOCTYPE svg PUBLIC "-//W3C//DTD SVG 1.1//EN" "http://www.w3.org/Graphics/SVG/1.1/DTD/svg11.dtd">
<svg version="1.1" id="Layer_1" xmlns="http://www.w3.org/2000/svg" xmlns:xlink="http://www.w3.org/1999/xlink" x="0px" y="0px"
	 width="350px" height="350px" viewBox="0 250 350 350" enable-background="new 0 250 350 350" xml:space="preserve">
<g>
	<path d="M183.86,277.809l-0.48-5.428l-4.029-0.169l-1.057,5.365l-4.03-0.169l5.772-27.472l4.86,0.204l3.448,27.858L183.86,277.809z
		 M182.14,257.308l-2.094,11.229l2.991,0.127L182.14,257.308z"/>
	<path d="M199.491,279.56l-2.821-13.092l-0.922-4.418l-2.391,16.631l-3.95-0.569l3.938-27.411l3.871,0.556l2.476,13.169l0.79,4.44
		l2.413-16.793l3.91,0.563l-3.94,27.411L199.491,279.56z"/>
	<path d="M211.804,282.211l-6.527-1.664l6.841-26.832l6.527,1.665c3.869,0.986,5.508,3.979,4.489,7.968l-3.615,14.182
		C218.493,281.558,215.671,283.198,211.804,282.211z M218.875,262.218c0.43-1.692,0.002-2.702-1.489-3.083l-1.973-0.504
		l-4.901,19.219l1.973,0.502c1.492,0.379,2.361-0.342,2.785-1.995L218.875,262.218z"/>
	<path d="M234.851,277.86l-1.31-0.536l-4.312,10.549l-4.118-1.685l10.48-25.639l6.66,2.722c2.886,1.181,4.322,3.609,2.857,7.189
		l-1.967,4.812c-0.834,2.042-2.232,3.266-4.248,3.25c0.016-0.038-1.771,12.577-1.771,12.577l-3.927-1.606L234.851,277.86z
		 M236.882,274.872c1,0.409,1.815,0.068,2.302-1.126l1.982-4.852c0.44-1.077,0.254-1.829-0.709-2.222l-2.194-0.897l-3.383,8.278
		L236.882,274.872z"/>
	<path d="M243.9,295.227c-3.524-1.877-4.566-5.496-2.747-8.91l7.312-13.728c1.8-3.379,5.403-4.568,8.926-2.692
		c3.523,1.876,4.547,5.532,2.748,8.909l-7.315,13.729C251.008,295.949,247.426,297.102,243.9,295.227z M256.371,276.421
		c0.624-1.175,0.355-2.354-0.854-2.999c-1.212-0.645-2.34-0.209-2.966,0.965l-7.625,14.317c-0.625,1.176-0.358,2.353,0.853,2.999
		c1.211,0.645,2.339,0.209,2.966-0.966L256.371,276.421z"/>
	<path d="M256.922,303.055c-3.106-2.09-4.021-5.718-1.931-8.821l12.265-18.212l3.692,2.486l-12.313,18.28
		c-0.789,1.173-0.611,2.247,0.492,2.991c1.174,0.789,2.235,0.552,3.026-0.621l12.312-18.279l3.553,2.391l-12.265,18.212
		C263.661,304.586,260.026,305.146,256.922,303.055z"/>
	<path d="M272.227,314.204l4.517-12.61l1.552-4.237l-10.813,12.859l-3.056-2.569l17.825-21.199l2.993,2.516l-4.854,12.492
		l-1.674,4.189l10.92-12.988l3.024,2.542l-17.826,21.198L272.227,314.204z"/>
	<path d="M281.287,322.938l-4.671-4.854l19.959-19.207l4.671,4.856c2.769,2.877,2.585,6.287-0.379,9.142l-10.55,10.151
		C287.32,325.906,284.056,325.815,281.287,322.938z M297.84,309.668c1.256-1.212,1.425-2.297,0.358-3.405l-1.414-1.47
		l-14.297,13.757l1.412,1.468c1.067,1.108,2.19,0.953,3.418-0.227L297.84,309.668z"/>
	<path d="M295.359,339.966l3.943-3.764l-2.384-3.256l-4.853,2.523l-2.386-3.253l25.074-12.643l2.872,3.925l-19.615,20.088
		L295.359,339.966z M310.307,325.818l-10.081,5.375l1.769,2.416L310.307,325.818z"/>
	<path d="M303.734,353.255l8.472-10.379l2.876-3.475l-14.486,8.51l-2.023-3.44l23.881-14.029l1.98,3.37l-8.745,10.154l-2.979,3.39
		l14.637-8.595l2,3.407l-23.881,14.028L303.734,353.255z"/>
	<path d="M309.359,364.552l-2.774-6.143l25.247-11.408l2.774,6.141c1.644,3.641,0.328,6.79-3.425,8.487l-13.345,6.029
		C314.049,369.372,311.004,368.191,309.359,364.552z M329.403,357.594c1.591-0.72,2.114-1.686,1.481-3.088l-0.84-1.857
		l-18.082,8.171l0.838,1.858c0.636,1.402,1.742,1.633,3.298,0.931L329.403,357.594z"/>
	<path d="M327.119,379.793l-0.398-1.354l-10.929,3.216l-1.255-4.268l26.566-7.814l2.028,6.9c0.879,2.992-0.123,5.626-3.83,6.719
		l-4.988,1.466c-2.113,0.622-3.944,0.293-5.189-1.288c0.042-0.014-10.925,6.465-10.925,6.465l-1.195-4.069L327.119,379.793z
		 M330.724,379.515c0.302,1.034,1.079,1.457,2.315,1.094l5.024-1.479c1.117-0.33,1.586-0.942,1.293-1.94l-0.669-2.273l-8.576,2.523
		L330.724,379.515z"/>
	<path d="M319.212,397.733c-0.732-3.925,1.447-6.994,5.247-7.701l15.288-2.847c3.761-0.7,6.938,1.373,7.67,5.298
		c0.73,3.924-1.489,7.003-5.249,7.702l-15.288,2.845C323.076,403.736,319.942,401.657,319.212,397.733z M341.682,395.75
		c1.31-0.245,2.063-1.188,1.812-2.537c-0.253-1.351-1.295-1.957-2.606-1.715l-15.939,2.968c-1.31,0.243-2.064,1.188-1.813,2.537
		c0.254,1.35,1.298,1.958,2.604,1.714L341.682,395.75z"/>
	<path d="M321.219,412.771c-0.304-3.73,1.957-6.708,5.688-7.013l21.884-1.778l0.36,4.435l-21.969,1.786
		c-1.407,0.114-2.135,0.925-2.027,2.251c0.115,1.41,0.966,2.091,2.373,1.976l21.966-1.786l0.347,4.27l-21.884,1.779
		C324.228,418.992,321.522,416.501,321.219,412.771z"/>
	<path d="M322.076,431.702l12.662-4.355l4.277-1.437l-16.791-0.398l0.095-3.991L350,422.179l-0.094,3.908l-12.778,4.021
		l-4.314,1.312l16.959,0.403l-0.099,3.949l-27.679-0.66L322.076,431.702z"/>
	<path d="M320.926,444.225l0.867-6.679l27.461,3.562l-0.867,6.681c-0.514,3.958-3.288,5.945-7.369,5.417l-14.513-1.885
		C322.383,450.787,320.414,448.184,320.926,444.225z M341.628,448.839c1.731,0.226,2.681-0.322,2.881-1.848l0.262-2.021
		l-19.668-2.549l-0.263,2.02c-0.197,1.525,0.625,2.304,2.314,2.523L341.628,448.839z"/>
	<path d="M316.416,465.848l5.405,0.734l1.055-3.894l-5-2.219l1.056-3.894l25.531,11.705l-1.275,4.698l-27.946-2.795L316.416,465.848
		z M336.802,468.704l-10.494-4.527l-0.784,2.892L336.802,468.704z"/>
	<path d="M311.25,480.691l13.397,0.156l4.512,0.085l-15.687-6.024l1.433-3.729l25.859,9.932l-1.401,3.651l-13.394-0.51l-4.505-0.218
		l15.841,6.084l-1.417,3.689l-25.859-9.933L311.25,480.691z"/>
	<path d="M305.922,492.136l3.074-5.996l24.65,12.632l-3.073,5.997c-1.82,3.554-5.105,4.486-8.77,2.61l-13.029-6.676
		C305.073,498.807,304.099,495.69,305.922,492.136z M323.851,503.475c1.555,0.796,2.636,0.602,3.338-0.768l0.931-1.814
		l-17.656-9.044l-0.932,1.812c-0.702,1.372-0.19,2.381,1.326,3.158L323.851,503.475z"/>
	<path d="M305.076,515.534l0.812-1.16l-9.335-6.538l2.553-3.646l22.691,15.896l-4.13,5.893c-1.792,2.557-4.477,3.415-7.645,1.197
		l-4.258-2.984c-1.807-1.266-2.693-2.902-2.23-4.862c0.031,0.024-11.874-4.511-11.874-4.511l2.434-3.474L305.076,515.534z
		 M307.542,518.176c-0.62,0.885-0.467,1.754,0.589,2.493l4.293,3.007c0.953,0.669,1.728,0.652,2.323-0.199l1.36-1.943l-7.324-5.13
		L307.542,518.176z"/>
	<path d="M286.141,520.532c2.608-3.022,6.369-3.245,9.297-0.716l11.781,10.158c2.899,2.5,3.265,6.275,0.658,9.301
		c-2.607,3.022-6.398,3.215-9.298,0.717l-11.78-10.16C283.87,527.307,283.533,523.557,286.141,520.532z M301.739,536.843
		c1.01,0.866,2.22,0.866,3.115-0.173c0.896-1.039,0.719-2.234-0.288-3.106l-12.285-10.592c-1.008-0.868-2.22-0.868-3.116,0.171
		c-0.896,1.038-0.717,2.232,0.29,3.105L301.739,536.843z"/>
	<path d="M275.624,531.526c2.724-2.567,6.463-2.665,9.029,0.059l15.066,15.975l-3.238,3.052l-15.123-16.035
		c-0.97-1.027-2.055-1.088-3.024-0.174c-1.029,0.971-1.031,2.057-0.06,3.084l15.122,16.036l-3.117,2.939l-15.064-15.975
		C272.649,537.765,272.903,534.094,275.624,531.526z"/>
	<path d="M261.409,544.007l11.311,7.169l3.794,2.442l-10.176-13.362l3.176-2.417l16.775,22.032l-3.112,2.366l-11.121-7.471
		l-3.719-2.55l10.276,13.495l-3.143,2.395l-16.773-22.033L261.409,544.007z"/>
	<path d="M250.904,550.925l5.759-3.492l14.357,23.679l-5.757,3.493c-3.415,2.07-6.699,1.144-8.833-2.376l-7.589-12.514
		C246.684,556.157,247.491,552.997,250.904,550.925z M260.22,569.979c0.905,1.493,1.927,1.896,3.244,1.099l1.742-1.058
		l-10.283-16.96l-1.742,1.058c-1.316,0.798-1.41,1.926-0.527,3.383L260.22,569.979z"/>
	<path d="M231.187,560.898l2.798,4.677l3.699-1.605l-1.386-5.29l3.7-1.603l6.781,27.239l-4.463,1.937l-15.249-23.57L231.187,560.898
		z M241.672,578.602l-3.012-11.022l-2.745,1.189L241.672,578.602z"/>
	<path d="M216.344,566.134l8.237,10.558l2.75,3.578l-5.083-16.01l3.804-1.209l8.379,26.394l-3.726,1.184l-7.958-10.778l-2.644-3.654
		l5.135,16.17l-3.766,1.194l-8.38-26.393L216.344,566.134z"/>
	<path d="M204.114,569.097l6.602-1.34l5.506,27.146l-6.604,1.34c-3.911,0.795-6.689-1.191-7.508-5.224l-2.912-14.349
		C198.373,572.597,200.201,569.891,204.114,569.097z M206.438,590.185c0.35,1.71,1.175,2.434,2.684,2.13l1.997-0.408l-3.946-19.441
		l-1.996,0.406c-1.51,0.305-1.978,1.332-1.64,3.005L206.438,590.185z"/>
	<path d="M185.278,583.041l1.41-0.091l-0.717-11.366l4.439-0.281l1.742,27.631l-7.178,0.452c-3.112,0.196-5.459-1.362-5.702-5.223
		l-0.328-5.184c-0.138-2.202,0.587-3.913,2.408-4.777c0.003,0.04-3.886-12.084-3.886-12.084l4.231-0.269L185.278,583.041z
		 M184.754,586.611c-1.08,0.068-1.663,0.733-1.583,2.017l0.331,5.229c0.073,1.16,0.568,1.756,1.607,1.691l2.363-0.15l-0.562-8.92
		L184.754,586.611z"/>
	<path d="M169.561,571.379c3.99,0.147,6.51,2.943,6.37,6.808l-0.564,15.543c-0.139,3.825-2.857,6.471-6.846,6.328
		c-3.99-0.144-6.508-2.983-6.369-6.807l0.562-15.542C162.855,573.842,165.57,571.234,169.561,571.379z M166.584,593.745
		c-0.048,1.327,0.708,2.272,2.079,2.32c1.374,0.051,2.195-0.835,2.245-2.163l0.588-16.21c0.048-1.328-0.709-2.273-2.079-2.323
		c-1.372-0.049-2.195,0.837-2.242,2.168L166.584,593.745z"/>
	<path d="M154.38,570.043c3.705,0.518,6.118,3.378,5.6,7.084l-3.048,21.744l-4.406-0.615l3.058-21.83
		c0.196-1.399-0.435-2.287-1.752-2.472c-1.4-0.196-2.251,0.481-2.447,1.882l-3.059,21.829l-4.242-0.595l3.048-21.743
		C147.652,571.618,150.674,569.524,154.38,570.043z"/>
	<path d="M135.768,566.731l1.458,13.315l0.458,4.49l4.094-16.298l3.873,0.974l-6.747,26.863l-3.793-0.952l-1.105-13.355
		l-0.328-4.498l-4.133,16.455l-3.833-0.962l6.748-26.863L135.768,566.731z"/>
	<path d="M123.81,562.832l6.319,2.327l-9.572,25.988l-6.321-2.329c-3.744-1.382-5.067-4.526-3.645-8.39l5.058-13.735
		C117.088,562.794,120.063,561.452,123.81,562.832z M114.713,581.99c-0.604,1.641-0.282,2.689,1.161,3.222l1.912,0.704l6.856-18.612
		l-1.913-0.704c-1.444-0.532-2.384,0.094-2.974,1.696L114.713,581.99z"/>
	<path d="M103.747,553.642l-1.911,5.108l3.561,1.892l3.271-4.385l3.564,1.894l-17.069,22.298l-4.298-2.284l8.915-26.628
		L103.747,553.642z M96.446,572.887l6.738-9.23l-2.646-1.403L96.446,572.887z"/>
	<path d="M90.398,545.302l-3.116,13.029l-1.08,4.382l9.347-13.962l3.318,2.22l-15.41,23.019l-3.248-2.175l3.462-12.948l1.209-4.346
		l-9.441,14.103l-3.282-2.199l15.409-23.02L90.398,545.302z"/>
	<path d="M80.427,537.581l5.17,4.32l-17.761,21.262l-5.172-4.317c-3.065-2.562-3.253-5.973-0.612-9.133l9.388-11.237
		C74.107,535.283,77.362,535.02,80.427,537.581z M65.409,552.571c-1.119,1.341-1.168,2.439,0.012,3.426l1.564,1.307l12.722-15.229
		l-1.564-1.307c-1.182-0.986-2.279-0.71-3.373,0.599L65.409,552.571z"/>
	<path d="M57.798,531.627l0.95,1.044l8.424-7.668l2.995,3.289L49.69,546.933l-4.843-5.317c-2.099-2.307-2.351-5.115,0.509-7.717
		l3.844-3.5c1.629-1.483,3.418-1.988,5.232-1.109c-0.032,0.028,7.001-10.589,7.001-10.589l2.855,3.136L57.798,531.627z
		 M54.68,533.448c-0.727-0.8-1.608-0.838-2.561,0.029l-3.874,3.527c-0.862,0.783-1.015,1.542-0.315,2.309l1.597,1.755l6.61-6.018
		L54.68,533.448z"/>
	<path d="M57.041,512.018c2.378,3.208,1.767,6.923-1.341,9.227l-12.495,9.262c-3.072,2.276-6.839,1.806-9.214-1.401
		c-2.377-3.206-1.733-6.945,1.341-9.224l12.495-9.262C50.932,508.316,54.665,508.811,57.041,512.018z M37.714,523.654
		c-1.069,0.793-1.333,1.972-0.516,3.073c0.818,1.104,2.022,1.193,3.091,0.401l13.028-9.657c1.07-0.794,1.335-1.971,0.518-3.073
		c-0.818-1.104-2.023-1.193-3.092-0.402L37.714,523.654z"/>
	<path d="M48.661,499.385c1.905,3.223,1.178,6.891-2.043,8.796l-18.896,11.185l-2.268-3.83l18.97-11.226
		c1.217-0.722,1.515-1.769,0.837-2.912c-0.719-1.218-1.781-1.457-2.998-0.739l-18.968,11.226l-2.182-3.688l18.897-11.181
		C43.23,495.107,46.753,496.163,48.661,499.385z"/>
	<path d="M39.605,482.745l-9.493,9.453l-3.219,3.162l15.287-6.979l1.658,3.634l-25.201,11.501l-1.623-3.556l9.745-9.204l3.31-3.064
		l-15.438,7.044l-1.64-3.593l25.201-11.502L39.605,482.745z"/>
	<path d="M35.193,470.972l2.126,6.394l-26.283,8.739L8.91,479.71c-1.26-3.787,0.374-6.785,4.28-8.083l13.892-4.619
		C31.028,465.693,33.934,467.183,35.193,470.972z M14.542,475.823c-1.659,0.55-2.276,1.457-1.792,2.919l0.645,1.933l18.824-6.259
		l-0.643-1.935c-0.486-1.459-1.565-1.804-3.183-1.264L14.542,475.823z"/>
	<path d="M29.847,449.534l-5.183,1.69l0.743,3.964l5.468-0.178l0.742,3.966l-28.075,0.561l-0.896-4.781l26.374-9.639L29.847,449.534
		z M10.251,455.828l11.417-0.489l-0.551-2.94L10.251,455.828z"/>
	<path d="M28.035,433.908l-12.125,5.695l-4.099,1.89l16.743-1.41l0.334,3.98l-27.6,2.321l-0.327-3.896l12.277-5.373l4.15-1.768
		l-16.91,1.421l-0.33-3.939l27.601-2.321L28.035,433.908z"/>
	<path d="M27.836,421.321l-0.14,6.736L0,427.478l0.14-6.736c0.084-3.992,2.628-6.269,6.744-6.184l14.639,0.308
		C25.681,414.953,27.92,417.331,27.836,421.321z M6.752,418.964c-1.745-0.034-2.634,0.613-2.666,2.149l-0.044,2.037l19.836,0.417
		l0.042-2.038c0.032-1.538-0.868-2.222-2.574-2.258L6.752,418.964z"/>
	<path d="M18.347,399.877l-0.222,1.396l11.253,1.789l-0.699,4.394l-27.352-4.344l1.13-7.104c0.489-3.081,2.525-5.031,6.344-4.425
		l5.134,0.816c2.177,0.345,3.688,1.428,4.133,3.393c-0.041-0.006,12.645-1.149,12.645-1.149l-0.666,4.19L18.347,399.877z
		 M14.973,398.584c0.169-1.068-0.349-1.78-1.622-1.984l-5.174-0.822c-1.15-0.183-1.836,0.171-2.001,1.198l-0.372,2.341l8.829,1.403
		L14.973,398.584z"/>
	<path d="M33.173,387.124c-1.022,3.859-4.307,5.699-8.044,4.708l-15.034-3.984c-3.697-0.979-5.679-4.214-4.657-8.074
		c1.022-3.86,4.345-5.688,8.043-4.708l15.034,3.984C32.253,380.041,34.196,383.267,33.173,387.124z M12.021,379.283
		c-1.286-0.341-2.374,0.19-2.724,1.516c-0.351,1.324,0.33,2.323,1.616,2.665l15.676,4.152c1.287,0.343,2.372-0.19,2.726-1.514
		c0.352-1.326-0.331-2.323-1.617-2.665L12.021,379.283z"/>
	<path d="M37.838,372.614c-1.33,3.498-4.652,5.217-8.152,3.887L9.162,368.7l1.58-4.158l20.604,7.828
		c1.323,0.504,2.326,0.083,2.799-1.16c0.502-1.321,0.029-2.303-1.293-2.804l-20.602-7.83l1.521-4.005l20.526,7.801
		C37.796,365.7,39.167,369.115,37.838,372.614z"/>
	<path d="M45.195,355.2l-13.308-1.531l-4.479-0.548l14.982,7.605l-1.807,3.56l-24.699-12.538l1.77-3.486l13.269,1.885l4.459,0.678
		l-15.13-7.679l1.788-3.525l24.699,12.538L45.195,355.2z"/>
	<path d="M51.649,344.411l-3.672,5.649l-23.222-15.095l3.671-5.648c2.175-3.348,5.537-3.94,8.99-1.697l12.275,7.979
		C53.177,337.863,53.825,341.062,51.649,344.411z M34.978,331.293c-1.463-0.954-2.558-0.869-3.398,0.419l-1.11,1.709l16.633,10.811
		l1.111-1.708c0.838-1.289,0.433-2.348-0.996-3.275L34.978,331.293z"/>
	<path d="M65.074,326.834l-4.56-2.992l-2.633,3.058l3.557,4.159l-2.633,3.057L40.82,312.541l3.176-3.688l24.007,14.578
		L65.074,326.834z M47.911,315.462l7.518,8.613l1.955-2.271L47.911,315.462z"/>
	<path d="M76.118,315.674l-12.023-5.901l-4.035-2.018l11.565,12.185l-2.895,2.748l-19.065-20.087l2.834-2.691l11.868,6.221
		l3.976,2.132l-11.68-12.304l2.864-2.719l19.065,20.085L76.118,315.674z"/>
	<path d="M85.82,307.65l-5.348,4.095l-16.837-21.981l5.348-4.096c3.169-2.427,6.534-1.862,9.037,1.405l8.899,11.62
		C89.447,301.992,88.988,305.225,85.82,307.65z M74.498,289.72c-1.062-1.387-2.122-1.675-3.343-0.739l-1.617,1.238l12.059,15.745
		l1.616-1.239c1.222-0.936,1.194-2.066,0.159-3.42L74.498,289.72z"/>
	<path d="M96.63,286.86l-1.228,0.7l5.63,9.908l-3.87,2.199L83.478,275.58l6.257-3.554c2.712-1.542,5.507-1.168,7.417,2.195
		l2.57,4.521c1.088,1.916,1.187,3.774-0.071,5.35c-0.021-0.035,8.793,9.165,8.793,9.165l-3.689,2.095L96.63,286.86z M95.533,283.417
		c0.94-0.535,1.175-1.385,0.537-2.506l-2.587-4.558c-0.576-1.013-1.282-1.33-2.188-0.814l-2.061,1.17l4.417,7.777L95.533,283.417z"
		/>
	<path d="M115.897,290.462c-3.654,1.611-7.141,0.193-8.701-3.344l-6.274-14.231c-1.544-3.501-0.253-7.068,3.4-8.679
		c3.654-1.61,7.157-0.156,8.702,3.344l6.272,14.23C120.857,285.322,119.549,288.852,115.897,290.462z M108.816,269.043
		c-0.537-1.218-1.629-1.737-2.884-1.183c-1.256,0.552-1.609,1.709-1.073,2.928l6.542,14.841c0.537,1.217,1.629,1.734,2.884,1.182
		c1.255-0.553,1.608-1.709,1.073-2.928L108.816,269.043z"/>
	<path d="M130.12,285.061c-3.563,1.146-6.978-0.379-8.123-3.941l-6.718-20.899l4.234-1.361l6.744,20.979
		c0.433,1.346,1.387,1.869,2.652,1.46c1.347-0.432,1.818-1.413,1.384-2.759l-6.742-20.978l4.078-1.311l6.719,20.899
		C135.493,280.715,133.683,283.916,130.12,285.061z"/>
	<path d="M148.291,279.95l-7.108-11.35l-2.367-3.84l3.407,16.447l-3.908,0.81l-5.618-27.115l3.828-0.792l6.807,11.541l2.252,3.907
		l-3.441-16.611l3.868-0.801l5.618,27.116L148.291,279.95z"/>
	<path d="M160.802,278.249l-6.706,0.656l-2.699-27.568l6.707-0.656c3.974-0.389,6.534,1.867,6.935,5.966l1.428,14.573
		C166.872,275.356,164.777,277.86,160.802,278.249z M160.648,257.032c-0.17-1.738-0.919-2.542-2.448-2.393l-2.029,0.197
		l1.933,19.746l2.03-0.198c1.532-0.149,2.103-1.125,1.937-2.822L160.648,257.032z"/>
</g>
</svg>
